# xmcd
#
# Track frame offsets:
#	150
#	22654
#	42639
#	61179
#	79167
#	95014
#	109522
#	127702
#	143256
#	162890
#	179041
#	199868
#	215262
#	229835
#	243830
#	259271
#	274800
#
# Disc length: 3889 seconds
#
# Revision: 1
# Processed by: cddbd v1.5.1PL0 Copyright (c) Steve Scherf et al.
# Submitted via: audiograbber 1.83.01
#
DISCID=e10f2f11
DTITLE=Reba McEntire - CKC18
DYEAR=2004
DGENRE=Karaoke
TTITLE0=Fancy
TTITLE1=Does He Love You
TTITLE2=Is There Life Out There
TTITLE3=Rumour Has It
TTITLE4=I'm Gonna Take That Mountain
TTITLE5=Im A Survivor
TTITLE6=The Heart Is A Lonely Hunter
TTITLE7=The Greatest Man I Never Knew
TTITLE8=The Night The Lights Went Out In Georgia
TTITLE9=The Heart Won't Lie
TTITLE10=She Thinks His Name Was John
TTITLE11=It's Your Call
TTITLE12=Walk On
TTITLE13=Sunday Kind Of Love
TTITLE14=A Christmas Letter
TTITLE15=Take It Back
TTITLE16=Why Haven't I Heard From You
EXTD=
EXTT0=
EXTT1=
EXTT2=
EXTT3=
EXTT4=
EXTT5=
EXTT6=
EXTT7=
EXTT8=
EXTT9=
EXTT10=
EXTT11=
EXTT12=
EXTT13=
EXTT14=
EXTT15=
EXTT16=
PLAYORDER=
